inDegrees=no
num_controls=7
num_derivatives=13
num_iterations=136
num_multipliers=7
num_parameters=0
num_slacks=7
num_states=26
objective=0.476949
objective_accelerations=0.044471
objective_balance=0.003671
objective_effort=0.040671
objective_height=0.382477
objective_ligament=0.005659
solver_duration=1907.914123
status=Solve_Succeeded
success=true
DataType=double
version=3
OpenSimVersion=4.5
endheader
time	/jointset/ground_pelvis/pelvis_tilt/value	/jointset/ground_pelvis/pelvis_tx/value	/jointset/ground_pelvis/pelvis_ty/value	/jointset/hip_l/hip_flexion_l/value	/jointset/hip_l/hip_adduction_l/value	/jointset/hip_l/hip_rotation_l/value	/jointset/back/lumbar_extension/value	/jointset/patellofemoral_l/patellar_flexion_l/value	/jointset/knee_l/knee_flexion_l/value	/jointset/knee_l/knee_adduction_l/value	/jointset/knee_l/knee_rotation_l/value	/jointset/ankle_l/ankle_angle_l/value	/jointset/subtalar_l/subtalar_angle_l/value	/jointset/ground_pelvis/pelvis_tilt/speed	/jointset/ground_pelvis/pelvis_tx/speed	/jointset/ground_pelvis/pelvis_ty/speed	/jointset/hip_l/hip_flexion_l/speed	/jointset/hip_l/hip_adduction_l/speed	/jointset/hip_l/hip_rotation_l/speed	/jointset/back/lumbar_extension/speed	/jointset/patellofemoral_l/patellar_flexion_l/speed	/jointset/knee_l/knee_flexion_l/speed	/jointset/knee_l/knee_adduction_l/speed	/jointset/knee_l/knee_rotation_l/speed	/jointset/ankle_l/ankle_angle_l/speed	/jointset/subtalar_l/subtalar_angle_l/speed	/forceset/tau_hip_flexion_l	/forceset/tau_hip_adduction_l	/forceset/tau_hip_rotation_l	/forceset/tau_knee_flexion_l	/forceset/tau_ankle_angle_l	/forceset/tau_subtalar_angle_l	/forceset/tau_lumbar_extension	lambda_cid13_p0	lambda_cid13_p1	lambda_cid13_p2	lambda_cid13_p3	lambda_cid13_p4	lambda_cid13_p5	lambda_cid14_p0	/jointset/ground_pelvis/pelvis_tilt/accel	/jointset/ground_pelvis/pelvis_tx/accel	/jointset/ground_pelvis/pelvis_ty/accel	/jointset/hip_l/hip_flexion_l/accel	/jointset/hip_l/hip_adduction_l/accel	/jointset/hip_l/hip_rotation_l/accel	/jointset/back/lumbar_extension/accel	/jointset/patellofemoral_l/patellar_flexion_l/accel	/jointset/knee_l/knee_flexion_l/accel	/jointset/knee_l/knee_adduction_l/accel	/jointset/knee_l/knee_rotation_l/accel	/jointset/ankle_l/ankle_angle_l/accel	/jointset/subtalar_l/subtalar_angle_l/accel	gamma_cid13_p0	gamma_cid13_p1	gamma_cid13_p2	gamma_cid13_p3	gamma_cid13_p4	gamma_cid13_p5	gamma_cid14_p0
1.5	0.009522577373266308	-0.01222220511105185	0.8521544855949433	0.6742300077267367	-0.3223427615584729	-0.1326730177648978	-0.7964067322833372	0.779321349313978	0.7793213493139933	-0.1023659963771636	-0.1745210114684859	0.1533405258726694	0.02429294130192288	0.3181904494317365	0.2336159526971611	0.4244125340291717	-1.986766964527548	0.08431890090500217	-0.6434651335257051	0.8397320477692958	-2.000169574361558	-2.000169574361551	-0.1460973400354026	-0.0001787027778209886	-0.453754610290829	-0.06260988518232834	-0.1951789612569985	0.01611667668909229	-0.005287943819070783	-0.2288845925877435	0.06603835718064512	0.04577362921452482	0.2777544012696723	-20.67675241472087	-18.78258704991269	5.422536890980199	-8.008438250113239	-668.9064696331492	-80.70788996825023	-15.22640470729784	-0.01159481703030419	0.6568202855209344	-0.622364256710598	-0.6829461554152926	0.4737932821789763	-0.3678881784078725	1.964697350359307	-0.9859035327395704	-0.9859035327395699	-0.2512061075282374	0.01933693605719983	-0.2784576007399724	0.4562243372581655	3.328662930190425e-07	9.555199800391014e-07	-1.501757891307999e-06	-3.330680590670455e-08	4.186247863118148e-07	5.701757847513444e-07	2.977221727470892e-07
1.51	0.01270373961824792	-0.009853405771611271	0.8563666788102029	0.6543298931721223	-0.3214767977536914	-0.139125988347032	-0.7879126511620709	0.7592725896764906	0.7592725896765106	-0.1038410621092895	-0.1745233198064193	0.1487894674124281	0.02368863951115402	0.317995350978228	0.2401197228343747	0.4179399389990461	-1.992999035754889	0.08887108032921723	-0.6470368557025764	0.8589687792585374	-2.009307214539035	-2.009307214539038	-0.1489329458769487	-0.0002624836813004769	-0.4563715834982549	-0.05823241333075717	-0.187872179647532	0.01511560238815643	-0.00507262221648144	-0.2252571702817541	0.06692976383682581	0.04505927739862346	0.2706452872214996	-20.16151975078291	-18.5990078344536	5.434903876197826	-8.000660456605319	-664.4279651641044	-80.6575370877672	-15.9451307183172	-0.03045325630934211	0.6435475323729501	-0.6725600059886264	-0.5547860869433047	0.445443719380407	-0.3377418811495339	1.885851464404489	-0.8364758209598019	-0.8364758209613962	-0.3020824760328861	-0.01931656694207438	-0.2404378217281775	0.4310630028729463	2.688122877202023e-07	1.34655694012811e-06	-1.02824808725719e-06	5.800228259597092e-08	3.819907439242868e-07	6.228450855873095e-07	2.739812916991589e-07
1.52	0.01588155369933532	-0.007420290299888265	0.8605115754991961	0.6343751682091249	-0.3205654094652997	-0.1456118616796995	-0.7792296646426725	0.739140697325088	0.7391406973251099	-0.1053449528305478	-0.17452588214607	0.1442148150919157	0.02312862331765417	0.3175208166527886	0.2464791791536459	0.4109532287759164	-1.997689046204221	0.09340379762693675	-0.6500456836323577	0.8775131273956942	-2.016796117144837	-2.016796117144851	-0.151862337861098	-0.0002295031204424518	-0.4584733823450521	-0.05375276572853175	-0.1805653980380653	0.01411452808722273	-0.004857300613917878	-0.2216297479757635	0.0678211704930072	0.04434492558272493	0.2635361731733264	-19.6453249251639	-18.4172189276584	5.449409705792422	-8.032336480618438	-659.9674838375474	-80.6512528613973	-16.65299933387775	-0.06748199141648119	0.6279575219324552	-0.725187295311411	-0.3745339998134519	0.4699008568798678	-0.2553093289898388	1.826220679942362	-0.6561560184046629	-0.6561560184046634	-0.2699633360488936	0.0426892289246941	-0.1754227286142409	0.4766594873890104	2.105794639190557e-07	1.65277744973847e-06	-6.283789780536775e-07	1.301151451538188e-07	3.517329868319635e-07	6.489694465014907e-07	2.507115907417152e-07
1.53	0.0190533088913249	-0.004924396278528353	0.8645841150917024	0.6143812367304501	-0.3196086745912817	-0.152126188920382	-0.770364924893828	0.7189422446411056	0.7189422446411102	-0.1068776283090916	-0.1745282753854532	0.139621753478861	0.02261408672715915	0.31679033605431	0.2526658365946656	0.4034753316516274	-2.000837148164415	0.09793398601437674	-0.6527345196834909	0.8952992548031049	-2.022606985263115	-2.022606985263117	-0.1546857182106876	-0.0002403113195462846	-0.4600523503104755	-0.04914354915952263	-0.1733521527155993	0.01312298179099432	-0.004687140601162846	-0.2178893408380485	0.06828618695017914	0.04356424015687036	0.2564506257415953	-19.28580083582901	-18.17832621869519	5.453825055581407	-7.854247349377828	-655.7153980461353	-80.56085077109122	-17.35045681423517	-0.08182059441967146	0.6089934803838156	-0.7709314963836347	-0.2459392134202615	0.4429790660935886	-0.2626791951652671	1.73447363563756	-0.5004802008324025	-0.5004802008306527	-0.2901465807214607	-0.02167518625734449	-0.1360794934493816	0.4544038954657397	1.585316454592086e-07	1.868880480715267e-06	-3.067531071254154e-07	1.818320176452877e-07	3.28250032865795e-07	6.468898087487769e-07	2.279425186304137e-07
